<svg xmlns="http://www.w3.org/2000/svg" width="749" height="121" viewBox="0 0 749 121">
  <defs>
    <style>
      .cls-1 {
        fill-rule: evenodd;
        fill: #fff;
      }
    </style>
  </defs>
  <path class="cls-1" d="M24.056,116.042l-24.065-.167C1.83,137.465,19.043,146,39.932,146c21.224,0,37.935-8.368,37.935-27.113,0-14.394-10.194-21.758-25.234-24.6l-15.04-2.51c-6.518-1.172-8.523-3.682-8.523-6.527,0-3.013,3.175-5.523,10.194-5.523,7.52,0,13.37,2.678,13.871,8.7h23.9C75.862,67,58.482,60.477,39.264,60.477c-21.558,0-36.1,10.042-36.1,27.113,0,14.226,9.86,22.093,23.73,24.436l16.377,2.845c5.348,0.837,8.523,2.845,8.523,5.69,0,3.515-4.512,5.523-11.7,5.523C31.576,126.084,25.226,123.072,24.056,116.042Zm67.7-30.125v23.766c0,21.925,13.369,36.318,35.428,36.318a57.683,57.683,0,0,0,21.725-4.017L145.9,117.716c-4.846,1.841-9.191,3.347-14.372,3.347-7.854,0-12.7-3.849-12.7-12.217V85.917H146.4V62.653H118.83V35.037H91.757V62.653m109.126-2.176c-25.735,0-44.619,18.243-44.619,42.678,0,24.77,18.884,42.846,44.619,42.846,25.569,0,44.453-18.076,44.453-42.846C245.336,78.72,226.452,60.477,200.883,60.477Zm0,62.595C189.52,123.072,182,114.7,182,103.323c0-11.046,7.52-19.917,18.883-19.917,11.2,0,18.718,8.87,18.718,19.917C219.6,114.7,212.08,123.072,200.883,123.072Zm112.79-61.758c-12.032,0-20.722,3.849-27.908,10.042v-8.7H258.526v81.172h27.239V97.3c6.351-6.193,14.706-9.707,27.908-10.209V61.314Zm91.58,39.163c0-24.6-18.049-40-42.28-40-25.068,0-42.28,18.075-42.28,42.678,0,24.77,17.714,42.846,44.285,42.846,19.051,0,34.091-9.875,38.938-25.774H376.509c-2.507,3.012-6.016,4.351-12.032,4.351-11.03,0-16.544-6.527-18.383-14.895h58.657A56.62,56.62,0,0,0,405.253,100.477ZM363.641,80.561c9.192,0,15.041,4.017,16.377,13.557h-33.59C348.6,85.917,354.116,80.561,363.641,80.561Zm113.106,63.264h32.42L475.744,95.791l30.749-33.139H474.24L446.165,92.946V25h-27.24V143.825h27.24V127.758l11.2-12.05Zm41.865-81.172v81.172h27.072V62.653H518.612ZM603.925,122.9c-11.7,0-18.55-8.7-18.55-19.749s6.852-19.749,18.55-19.749c8.188,0,14.539,5.188,15.876,12.552h25.568c-2-20.921-19.218-35.482-41.611-35.482-25.4,0-44.286,18.075-44.286,42.678,0,24.77,18.884,42.679,44.286,42.679,22.393,0,39.606-14.394,41.611-35.315H619.8C618.464,117.884,612.113,122.9,603.925,122.9Zm112.653,20.921H749L715.575,95.791l30.75-33.139H714.071L686,92.946V25h-27.24V143.825H686V127.758l11.2-12.05Z" transform="translate(0 -25)"/>
</svg>
